<?xml version="1.0" encoding="utf-8"?>
<!-- Generator: Adobe Illustrator 26.1.0, SVG Export Plug-In . SVG Version: 6.00 Build 0)  -->
<svg version="1.1" id="圖層_1" xmlns="http://www.w3.org/2000/svg" xmlns:xlink="http://www.w3.org/1999/xlink" x="0px" y="0px"
	 width="16px" height="16px" viewBox="0 0 16 16" style="enable-background:new 0 0 16 16;" xml:space="preserve">
<style type="text/css">
	.st0{fill:#FFFFFF;}
</style>
<path class="st0" d="M1,2.8c0.9-0.4,2.2-0.8,3.4-0.9C5.7,1.8,6.8,2,7.5,2.7v9.7c-0.9-0.5-2.1-0.6-3.2-0.5c-1.2,0.1-2.4,0.5-3.3,0.8
	C1,12.8,1,2.8,1,2.8z M8.5,2.7c0.7-0.7,1.8-0.9,3.1-0.8c1.2,0.1,2.5,0.5,3.4,0.9v9.9c-0.9-0.4-2.1-0.7-3.3-0.8
	c-1.1-0.1-2.3,0-3.2,0.5V2.7z M8,1.8c-1-0.8-2.4-1-3.7-0.8c-1.5,0.2-3,0.7-4,1.1C0.1,2.1,0,2.3,0,2.5v11C0,13.8,0.2,14,0.5,14
	c0.1,0,0.1,0,0.2,0c0.9-0.4,2.3-0.9,3.7-1C5.8,12.8,7,13,7.6,13.8c0.2,0.2,0.5,0.2,0.7,0.1c0,0,0.1,0,0.1-0.1c0.6-0.8,1.8-1,3.2-0.9
	c1.4,0.1,2.8,0.6,3.7,1c0.3,0.1,0.5,0,0.7-0.2c0-0.1,0-0.1,0-0.2v-11c0-0.2-0.1-0.4-0.3-0.5c-1-0.4-2.5-1-4-1.1
	C10.4,0.8,9,0.9,8,1.8z"/>
</svg>
