<?xml version="1.0" encoding="utf-8"?>
<!-- Generator: Adobe Illustrator 26.1.0, SVG Export Plug-In . SVG Version: 6.00 Build 0)  -->
<svg version="1.1" id="圖層_1" xmlns="http://www.w3.org/2000/svg" xmlns:xlink="http://www.w3.org/1999/xlink" x="0px" y="0px"
	 width="16px" height="16px" viewBox="0 0 16 16" style="enable-background:new 0 0 16 16;" xml:space="preserve">
<style type="text/css">
	.st0{fill-rule:evenodd;clip-rule:evenodd;fill:#5B5B5B;}
</style>
<path class="st0" d="M10.6,0.6c0.2-0.2,0.5-0.2,0.7,0l0,0l4,4c0.2,0.2,0.2,0.5,0,0.7l0,0l-1.9,1.9l-0.8,3.3c-0.1,0.5-0.5,0.9-1,1.1
	L1.3,14.7L4.4,4.4c0.2-0.5,0.6-0.9,1.1-1l3.3-0.8L10.6,0.6z M8.8,3.6L5.7,4.3c-0.2,0-0.3,0.2-0.4,0.3l-2.6,8.6l8.6-2.6
	c0.2-0.1,0.3-0.2,0.3-0.4L12.4,7L8.8,3.6L8.8,3.6z"/>
<path class="st0" d="M2.8,13.2L8,9c0.6,0,1-0.4,1-1S8.6,7,8,7S7,7.4,7,8L2.8,13.2L2.8,13.2C2.7,13.3,2.8,13.2,2.8,13.2z"/>
</svg>
